<svg xmlns="http://www.w3.org/2000/svg" width="256" height="256"><path fill="#1976D2" fill-opacity=".016" fill-rule="evenodd" d="M0 128.004v128.004l128.25-.254 128.25-.254.254-127.75L257.008 0H0zm.485.496c0 70.4.119 99.053.265 63.672s.146-92.98 0-128S.485 58.1.485 128.5"/><path fill="#1976D2" fill-opacity=".171" fill-rule="evenodd" d="M105 2.564c-25.677 5.391-46.498 15.98-64.813 32.963l-2.657 2.464 9.412 9.45 9.411 9.451 5.574-4.773C73.914 41.854 85.05 35.8 101 30.877c10.094-3.115 11.157-3.24 27.5-3.24 16.384 0 17.38.118 27.5 3.264 13.746 4.274 25.682 10.532 36.233 18.997l8.548 6.859 9.332-9.37c8.048-8.082 9.129-9.555 7.859-10.71-20.573-18.711-40.013-28.72-66.18-34.076C135.084-.819 121.166-.83 105 2.564m5.948 50.93c-27.105 5.405-51.682 30.095-57.503 57.767-5.14 24.436 1.395 50.064 17.396 68.224l3.341 3.792 8.679-8.638c4.773-4.752 9.034-8.639 9.467-8.639.434 0 2.45 1.305 4.481 2.9 18.482 14.52 44.9 14.52 63.382 0 2.031-1.595 4.066-2.9 4.522-2.9s4.629 3.818 9.271 8.484l8.44 8.484 2.808-2.69c7.571-7.254 15.739-22.935 18.342-35.215 1.695-7.997 1.829-23.078.283-31.981-4.893-28.181-29.799-53.651-58.2-59.518-9.038-1.867-25.53-1.9-34.709-.07m-90.14 6.216C16.124 65.036 7.497 84.459 4.69 96c-5.631 23.15-6.068 34.679-2.094 55.138 5.9 30.373 20.41 55.83 42.242 74.115C70.209 246.5 96.014 256 128.358 256c18.019 0 30.468-2.186 45.642-8.012 33.992-13.053 61.022-40.079 73.998-73.988 7.758-20.274 11.117-47.874 7.627-62.669-.757-3.207-2.167-9.431-3.135-13.831-2.726-12.398-11.49-32.606-16.365-37.734-1.551-1.631-2.163-1.219-10.374 7-4.799 4.804-8.966 9.006-9.26 9.339-.294.332 1.21 4.382 3.341 9 2.132 4.617 5.166 12.895 6.744 18.395 2.597 9.055 2.865 11.418 2.833 25-.03 13.009-.388 16.327-2.699 25-2.833 10.631-10.716 27.748-15.391 33.42-9.872 11.975-15.112 17.233-24.005 24.08-7.26 5.591-22.127 12.496-33.814 15.704-8.842 2.427-11.738 2.745-25 2.745s-16.158-.318-25-2.745C85.006 221.627 70.469 213.421 57.964 201c-14.318-14.222-20.885-25.195-27.192-45.438-2.996-9.615-3.135-10.816-3.135-27.062 0-16.347.124-17.399 3.228-27.375 1.776-5.707 4.354-12.597 5.73-15.313 4.929-9.727 5.255-8.505-4.985-18.703-8.69-8.653-9.32-9.085-10.802-7.399m101.09 20.577c-9.789 6.587-5.044 21.713 6.811 21.713 3.927 0 5.019-.492 7.923-3.571 9.847-10.441-2.884-26.117-14.734-18.142M.385 128c0 6.875.16 9.688.355 6.25.196-3.437.196-9.062 0-12.5-.195-3.437-.355-.625-.355 6.25"/><path fill="#1976D2" fill-opacity=".394" fill-rule="evenodd" d="M117.5 1.119c-25.51 3.73-40.831 9.054-58.308 20.259C50.951 26.662 39 36.698 39 38.335c0 .665 3.798 4.988 8.441 9.606l8.441 8.397 4.683-3.919c12.921-10.813 25.2-17.604 39.935-22.087 8.386-2.552 10.261-2.741 27.5-2.781 16.417-.037 19.401.218 26.5 2.264 15.14 4.364 32.655 13.974 42.276 23.195 1.801 1.727 3.601 2.993 4 2.815.398-.179 4.549-4.303 9.224-9.164l8.5-8.839-4-3.461c-22.012-19.044-41.213-27.933-69.731-32.284-14.538-2.218-17.857-2.334-27.269-.958m-2.725 51.912c-16.884 2.844-34.489 13.312-45.709 27.18-5.999 7.413-9.878 14.582-13.683 25.289-2.657 7.474-2.841 8.986-2.791 23 .051 14.165.227 15.49 3.166 23.801 1.712 4.841 4.234 10.716 5.605 13.055C64.778 171.183 72.985 182 73.992 182c.452 0 4.558-3.825 9.124-8.5s8.596-8.5 8.955-8.5c.36 0 2.403 1.41 4.541 3.134 6.147 4.956 17.108 9.715 24.888 10.806 13.276 1.861 28.401-2.352 38.939-10.847l3.939-3.175 8.581 8.541c4.719 4.698 9.103 8.541 9.742 8.541 1.69 0 12.113-14.592 14.902-20.861 9.194-20.667 9.695-42.016 1.454-62.001-9.631-23.354-30.397-40.409-55.523-45.599-7.838-1.619-20.803-1.848-28.759-.508M18.859 63.252c-4.218 6.786-6.934 12.611-10.41 22.33-5.027 14.053-9.15 37.807-8.113 46.736 4.164 35.836 11.896 55.608 30.537 78.085 26.48 31.928 68.495 49.051 109.807 44.75 30.902-3.218 56.486-15.282 77.842-36.708 20.62-20.686 32.756-45.596 36.514-74.945 2.074-16.198 2.198-18.849 1.115-23.956-.588-2.774-1.588-8.644-2.222-13.044-1.341-9.308-6.168-24.119-11.094-34.045-4.307-8.678-7.138-13.44-7.995-13.449C233.543 58.994 217 75.429 217 76.73c0 .73 1.287 3.902 2.86 7.049 3.514 7.03 7.684 19.717 9.089 27.655 1.563 8.827 1.286 27.51-.539 36.358-6.412 31.084-25.12 56.186-52.667 70.669-16.066 8.448-28.676 11.524-47.243 11.524-13.172 0-21.438-1.227-31.5-4.676-19.705-6.754-35.588-17.661-47.56-32.658-15.404-19.297-22.524-39.535-22.547-64.095-.016-17.161 3.189-30.917 10.622-45.586C38.882 80.273 40 77.6 40 77.029c0-.961-16.301-17.223-17.82-17.777-.374-.136-1.868 1.664-3.321 4m107.129 14.707c-12.345 2.659-13.34 20.13-1.371 24.08 7.85 2.59 16.383-3.685 16.383-12.049 0-7.494-7.641-13.618-15.012-12.031M.328 128.5c.005 3.85.185 5.302.402 3.228.216-2.075.213-5.225-.008-7s-.398-.078-.394 3.772"/><path fill="#1976D2" fill-opacity=".984" fill-rule="evenodd" d="M106.318 3.099C85.664 6.547 59.175 19.622 42.993 34.357l-4.236 3.857 8.35 8.393C51.699 51.223 55.959 55 56.573 55s1.974-.955 3.022-2.122c2.97-3.308 12.322-10.174 18.666-13.703 15.753-8.763 30.944-12.562 50.239-12.562 15.101 0 25.532 1.888 37.826 6.846 11.854 4.78 25.786 13.48 31.079 19.408 1.048 1.173 2.408 2.133 3.022 2.133s4.826-3.728 9.358-8.284l8.241-8.284-3.763-3.559c-16.32-15.436-43.523-28.748-65.13-31.874-8.038-1.163-35.637-1.098-42.815.1M118 52.954c-16.012 2.377-31.279 10.159-43.083 21.963-9.137 9.138-15.123 18.931-19.155 31.338-2.672 8.223-3.008 10.627-3.04 21.745-.031 10.772.338 13.744 2.672 21.5 3.073 10.212 8.965 21.212 15.002 28.004l4.104 4.618 8.942-9.024 8.943-9.024 4.057 3.322C105.114 174.495 117.56 179 128.5 179c10.652 0 23.436-4.524 31.478-11.139 1.913-1.574 3.929-2.861 4.48-2.861s4.9 3.879 9.663 8.62l8.661 8.621 4.593-5.853c6.321-8.053 10.584-16.267 13.953-26.888 2.482-7.822 2.856-10.57 2.856-21 0-10.373-.392-13.288-2.89-21.5-3.975-13.067-9.878-22.802-19.707-32.5-9.648-9.519-19.471-15.357-31.821-18.912-9.677-2.785-23.193-3.906-31.766-2.634M19.222 63.665C12.694 73.864 6.266 90.97 3.394 105.788c-1.838 9.483-2.055 31.872-.414 42.712.666 4.4 2.568 12.275 4.228 17.5 6.709 21.131 16.014 36.398 31.714 52.036 16.39 16.324 32.503 25.836 55.411 32.708l12.167 3.65h44l12-3.609c27.365-8.229 47.738-21.682 64.72-42.738 7.418-9.198 9.967-13.199 15.37-24.129 8.418-17.025 12.321-34.248 12.375-54.596.043-16.335-1.273-26.122-5.135-38.187-3.016-9.421-10.437-25.695-13.633-29.894l-1.72-2.26-8.827 8.868-8.827 8.868 2.583 5.097c17.558 34.65 14.111 77.052-8.756 107.686-4.577 6.132-13.546 15.214-19.65 19.898-18.577 14.256-38.498 20.925-62.5 20.925-29.399 0-53.584-10.18-73.588-30.975C34.909 178.554 25.563 154.143 26.447 125c.489-16.111 3.583-28.383 10.696-42.421l3.001-5.922-8.914-8.913-8.913-8.913zm103.019 15.33c-3.785 2.307-7.232 7.477-7.237 10.854-.006 3.837 2.982 8.979 6.47 11.135 12.104 7.481 26.119-7.333 17.411-18.403-4.404-5.599-11.009-7.022-16.644-3.586"/></svg>